<svg xmlns="http://www.w3.org/2000/svg" xml:space="preserve" width="16" height="16" data-version="2">
    <path fill="#7c4894" d="M8.05 3.55v7.7H6.4L3.43 6.18v5.07H1.89v-7.7h1.65l2.97 5.07V3.55zm6.49 3.85q0 .53-.14 1.02t-.39.92q-.25.43-.6.78-.35.35-.78.6-.43.26-.92.39-.49.14-1.03.14H8.36v-7.7h2.32q.54 0 1.03.13.49.14.92.39.43.26.78.61.35.35.6.78.25.42.39.92.14.49.14 1.02m-1.55 0q0-.48-.18-.9-.18-.42-.49-.73-.31-.32-.74-.5-.42-.18-.9-.18h-.76v4.62h.76q.48 0 .9-.18.43-.18.74-.5.31-.31.49-.73t.18-.9" paint-order="stroke"/>
</svg>
